<svg width="144" height="143" viewBox="0 0 144 143" fill="none" xmlns="http://www.w3.org/2000/svg">
<path d="M60.0095 53.7188C57.9506 55.4413 51.5719 56.6524 45.5834 71.7649L36.7689 63.8386C32.7003 65.9032 29.5478 69.4108 27.9275 73.6758L41.1829 85.5869C42.7183 86.9619 44.7364 87.6718 46.7944 87.5607C48.8525 87.4497 50.7826 86.5269 52.1611 84.9948L57.6538 78.8802L55.4716 93.3517L46.536 103.31C48.7782 107.247 52.2339 110.353 56.3867 112.164L65.8472 101.64C67.2477 100.082 68.2376 98.1997 68.727 96.1629C70.786 87.5219 70.0862 72.2763 71.4185 59.142C66.0788 58.1462 64.1006 56.935 60.0095 53.7188Z" fill="#71C0BB"/>
<path d="M132.937 54.3244L117.596 70.5135L123.679 43.7336L139.02 27.5445L132.937 54.3244Z" fill="#0B1D51"/>
<path d="M84.2998 48.3898C84.098 48.2553 83.7481 48.3764 83.2905 48.6994L84.3529 49.5741C84.5286 48.955 84.5286 48.5244 84.2998 48.3898Z" fill="#0B1D51"/>
<path d="M74.7991 56.666C74.5158 57.3926 74.5533 58.0032 74.7722 58.1463C74.991 58.2893 75.6221 58.1462 76.0471 57.5945L74.7991 56.666Z" fill="#0B1D51"/>
<path d="M80.9242 48.9821C80.7224 48.8475 80.3725 48.9686 79.9149 49.2916L80.9773 50.1663C81.1509 49.5607 81.1367 49.1301 80.9242 48.9821Z" fill="#0B1D51"/>
<path d="M49.4456 99.9984L46.4708 103.309C48.713 107.246 52.1687 110.351 56.3215 112.162L59.4301 108.704C55.3426 106.809 51.8793 103.79 49.4456 99.9984Z" fill="#0B1D51"/>
<path d="M66.5632 51.1891L71.5424 58.927L72.8612 56.5316L66.5632 51.1891Z" fill="#0B1D51"/>
<path d="M71.6636 31.6759L72.3499 33.1562L72.7267 32.1469L71.6636 31.6759Z" fill="#0B1D51"/>
<path d="M68.0974 67.257L57.6411 78.884L56.578 86.0164L68.0974 67.257Z" fill="#0B1D51"/>
<path d="M42.6901 111.975C41.796 112.933 40.8943 113.884 39.9852 114.828C39.2451 119.202 39.595 129.241 41.008 133.911C44.7618 127.666 46.1217 123.711 48.0199 117.278C45.975 115.802 44.1762 114.013 42.6901 111.975Z" fill="#0B1D51"/>
<path d="M27.8744 60.3667C27.2284 59.7208 26.4883 58.9268 25.5059 57.8637C17.8877 58.9403 9.50455 61.4837 5.95184 63.1658C11.3706 65.2149 17.175 66.0421 22.9505 65.5881L23.2465 65.8573C24.5167 63.8138 26.0755 61.9645 27.8744 60.3667Z" fill="#0B1D51"/>
<path d="M39.6756 66.3823L36.7717 63.7617C32.7062 65.8302 29.5549 69.3364 27.9303 73.5989L30.8774 76.25C32.9162 72.2612 35.9459 68.8633 39.6756 66.3823Z" fill="#0B1D51"/>
<path d="M77.5847 22.9153C77.6424 22.5892 77.582 22.2532 77.4143 21.9676C77.2466 21.682 76.9826 21.4656 76.6696 21.3571C76.8198 21.2179 76.9378 21.0476 77.0155 20.8581C77.0931 20.6686 77.1285 20.4645 77.1192 20.26C77.1099 20.0554 77.0561 19.8553 76.9616 19.6737C76.8671 19.492 76.7341 19.3332 76.5719 19.2082C76.3544 19.0413 76.093 18.9417 75.8197 18.9213C75.9032 18.744 75.949 18.5512 75.9541 18.3552C75.9592 18.1592 75.9235 17.9644 75.8493 17.7829C75.7752 17.6014 75.6641 17.4374 75.5232 17.3011C75.3822 17.1648 75.2145 17.0593 75.0307 16.9913C74.7849 16.8999 74.5187 16.8786 74.2615 16.9296C74.2951 16.6683 74.2544 16.4028 74.144 16.1635C74.0336 15.9243 73.8581 15.7209 73.6375 15.5768C73.4173 15.4327 73.161 15.3532 72.8979 15.3473C72.6347 15.3414 72.3752 15.4094 72.1487 15.5435C72.1126 15.343 72.0338 15.1527 71.9175 14.9854C71.8013 14.8181 71.6503 14.6778 71.475 14.5741C71.2996 14.4704 71.104 14.4057 70.9013 14.3844C70.6987 14.3631 70.4939 14.3857 70.3008 14.4507C70.0427 14.5379 69.8152 14.6978 69.6457 14.9111C69.5173 14.6541 69.3169 14.4402 69.0689 14.2953C68.8209 14.1504 68.5361 14.0808 68.2493 14.0951C67.9624 14.1093 67.6859 14.2068 67.4536 14.3756C67.2212 14.5444 67.043 14.7772 66.9408 15.0456C66.7781 14.8744 66.5749 14.7468 66.35 14.6746C66.1251 14.6024 65.8856 14.5879 65.6536 14.6325C65.4216 14.6771 65.2046 14.7793 65.0224 14.9297C64.8403 15.0801 64.6989 15.2739 64.6112 15.4933C64.6344 15.1568 64.5609 14.8207 64.3995 14.5245C64.2381 14.2284 63.9955 13.9845 63.7002 13.8215C63.4049 13.6586 63.0691 13.5834 62.7325 13.6047C62.3959 13.6261 62.0724 13.7432 61.8001 13.9421C61.651 13.5979 61.4004 13.3075 61.0817 13.1096C60.763 12.9118 60.3915 12.8159 60.0169 12.835C59.6423 12.854 59.2824 12.9869 58.9854 13.2161C58.6884 13.4452 58.4685 13.7596 58.355 14.1171C58.047 13.9308 57.6893 13.8433 57.3301 13.8665C56.9709 13.8896 56.6274 14.0223 56.3458 14.2466C56.0643 14.4709 55.8582 14.776 55.7553 15.121C55.6525 15.466 55.6578 15.8342 55.7705 16.176C55.4102 16.2168 55.0712 16.3677 54.7997 16.6081C54.5283 16.8485 54.3375 17.1668 54.2534 17.5195C54.1693 17.8723 54.196 18.2424 54.3298 18.5794C54.4637 18.9164 54.6982 19.204 55.0014 19.4029C54.7175 19.6328 54.5119 19.9451 54.4131 20.2968C54.3142 20.6484 54.327 21.0221 54.4495 21.3662C54.5721 21.7103 54.7985 22.0079 55.0974 22.2179C55.3963 22.4279 55.753 22.5399 56.1183 22.5385C56.0446 22.8894 56.0799 23.2545 56.2195 23.5849C56.359 23.9152 56.5962 24.195 56.8993 24.3868C57.2023 24.5785 57.5567 24.6731 57.915 24.6579C58.2733 24.6426 58.6183 24.5182 58.904 24.3014C59.0172 24.5916 59.2075 24.8454 59.4544 25.0354C59.7013 25.2254 59.9954 25.3443 60.3049 25.3794C60.2479 25.5803 60.2364 25.7914 60.271 25.9974C60.3057 26.2034 60.3858 26.3991 60.5055 26.5703C60.6252 26.7415 60.7814 26.8839 60.963 26.9873C61.1445 27.0906 61.3467 27.1523 61.555 27.1678C61.4426 27.4057 61.399 27.6704 61.4293 27.9319C61.4596 28.1933 61.5626 28.4411 61.7265 28.647C61.8904 28.8529 62.1087 29.0088 62.3567 29.097C62.6047 29.1852 62.8724 29.2022 63.1295 29.146C63.0986 29.4076 63.1417 29.6727 63.2539 29.9111C63.3661 30.1494 63.5428 30.3516 63.7641 30.4945C63.9854 30.6375 64.2424 30.7155 64.5058 30.7198C64.7692 30.724 65.0286 30.6544 65.2544 30.5186C65.3024 30.7871 65.4272 31.036 65.6136 31.235C65.8001 31.4341 66.0402 31.5749 66.305 31.6404C66.5698 31.7059 66.8479 31.6932 67.1056 31.604C67.3634 31.5148 67.5898 31.3528 67.7574 31.1377C67.9271 31.381 68.1471 31.585 68.4025 31.7359C68.6579 31.8868 68.9427 31.9811 69.2377 32.0124C69.6885 31.198 69.9937 30.3111 70.1393 29.3918C70.2891 28.4556 70.1141 27.4964 69.6435 26.6734C67.6384 26.014 68.54 23.659 69.8992 24.5741C70.5452 25.0182 70.7902 24.9898 70.8412 24.5606C70.845 24.4366 70.8823 24.316 70.9492 24.2115C71.016 24.107 71.1099 24.0225 71.2209 23.9671C71.3405 24.2194 71.5321 24.4308 71.7715 24.5746C72.0109 24.7184 72.2875 24.7883 72.5665 24.7753C72.8455 24.7624 73.1145 24.6672 73.3396 24.5019C73.5646 24.3365 73.7358 24.1083 73.8316 23.846C73.9618 23.9835 74.1184 24.0936 74.2919 24.1696C74.4654 24.2457 74.6525 24.2861 74.8419 24.2886C75.0314 24.2911 75.2194 24.2556 75.3949 24.1842C75.5704 24.1128 75.7298 24.0069 75.8636 23.8729C76.1967 24.6572 76.4492 25.4733 76.6172 26.3086C76.9225 26.137 77.1533 25.8584 77.2651 25.5265C77.3768 25.1945 77.3615 24.833 77.2221 24.5117C77.13 24.2988 76.987 24.1118 76.8056 23.9671C77.0083 23.8643 77.1842 23.7158 77.3194 23.5332C77.4546 23.3506 77.5455 23.1391 77.5847 22.9153Z" fill="#0B1D51"/>
<path d="M106.975 19.0667C106.885 18.5211 106.634 18.0146 106.256 17.6112C105.878 17.2078 105.388 16.9256 104.85 16.8002C104.266 16.6644 103.653 16.7201 103.103 16.959C102.553 17.198 102.094 17.6076 101.794 18.1273C101.495 18.647 101.37 19.2493 101.439 19.8452C101.508 20.4412 101.767 20.9991 102.177 21.4367C102.587 21.8742 103.128 22.1682 103.718 22.2753C104.308 22.3823 104.917 22.2966 105.455 22.031C105.993 21.7653 106.431 21.3337 106.705 20.7999C106.979 20.2662 107.073 19.6585 106.975 19.0667Z" fill="#0B1D51"/>
<path d="M23.4328 81.8049L17.1214 83.8362L19.7293 99.232L23.4328 81.8049Z" fill="#0B1D51"/>
<path d="M111.08 55.1859L107.46 58.5098C108.73 58.7789 109.963 59.1989 111.134 59.7613C111.629 59.9724 112.085 60.2684 112.479 60.636C113.031 61.2685 110.071 60.3669 108.617 60.2054H108.604C108.898 60.3605 109.165 60.5595 109.398 60.7975C109.875 61.3436 106.224 60.1077 105.899 60.34C107.298 60.9725 109.465 62.1702 109.99 63.1023C110.609 64.2192 107.433 61.9981 105.374 61.9308C106.679 62.5363 108.106 63.3849 108.617 64.3269C109.317 65.6018 106.787 63.2644 103.772 63.1695H103.759C106.639 64.919 107.985 66.3568 103.894 64.5826C103.144 64.247 102.343 64.0379 101.525 63.9635L93.3027 71.4826L117.58 70.5406L121.146 54.8225L111.08 55.1859Z" fill="#0B1D51"/>
<path d="M132.937 54.3244L117.596 70.5135L123.679 43.7336L139.02 27.5445L132.937 54.3244Z" stroke="#0B1D51" stroke-width="0.711835" stroke-linejoin="round"/>
<path d="M111.08 55.1856L107.46 58.5095C108.73 58.7787 109.963 59.1987 111.134 59.7611C111.629 59.9721 112.085 60.2682 112.479 60.6358C113.031 61.2683 110.071 60.3667 108.617 60.2052H108.604C108.897 60.3603 109.165 60.5593 109.398 60.7973C109.875 61.3434 106.224 60.1074 105.899 60.3397C107.298 60.9722 109.465 62.1699 109.99 63.102C110.609 64.219 107.433 61.9978 105.374 61.9305C106.679 62.5361 108.106 63.3846 108.617 64.3266C109.317 65.6015 106.787 63.2642 103.772 63.1693H103.759C106.639 64.9187 107.985 66.3565 103.894 64.5823C103.144 64.2468 102.343 64.0376 101.525 63.9633L93.3027 71.4823L117.58 70.5403L121.146 54.8223L111.08 55.1856Z" stroke="#0B1D51" stroke-width="0.711835" stroke-linejoin="round"/>
<path d="M77.5847 22.9153C77.6424 22.5892 77.5819 22.2532 77.4142 21.9676C77.2465 21.682 76.9825 21.4656 76.6696 21.3571C76.8197 21.2179 76.9378 21.0476 77.0154 20.8581C77.093 20.6686 77.1284 20.4645 77.1191 20.26C77.1098 20.0554 77.056 19.8553 76.9615 19.6737C76.867 19.492 76.734 19.3332 76.5718 19.2082C76.3544 19.0413 76.093 18.9417 75.8196 18.9213C75.9032 18.744 75.9489 18.5512 75.954 18.3552C75.9591 18.1592 75.9235 17.9644 75.8493 17.7829C75.7751 17.6014 75.664 17.4374 75.5231 17.3011C75.3822 17.1648 75.2145 17.0593 75.0306 16.9913C74.7849 16.8999 74.5186 16.8786 74.2614 16.9296C74.295 16.6683 74.2543 16.4028 74.1439 16.1635C74.0336 15.9243 73.858 15.7209 73.6374 15.5768C73.4172 15.4327 73.161 15.3532 72.8978 15.3473C72.6347 15.3414 72.3751 15.4094 72.1487 15.5435C72.1126 15.343 72.0337 15.1527 71.9175 14.9854C71.8012 14.8181 71.6503 14.6778 71.4749 14.5741C71.2995 14.4704 71.1039 14.4057 70.9013 14.3844C70.6987 14.3631 70.4938 14.3857 70.3008 14.4507C70.0426 14.5379 69.8152 14.6978 69.6456 14.9111C69.5172 14.6541 69.3168 14.4402 69.0688 14.2953C68.8209 14.1504 68.5361 14.0808 68.2492 14.0951C67.9624 14.1093 67.6859 14.2068 67.4535 14.3756C67.2211 14.5444 67.0429 14.7772 66.9407 15.0456C66.778 14.8744 66.5748 14.7468 66.3499 14.6746C66.125 14.6024 65.8855 14.5879 65.6535 14.6325C65.4216 14.6771 65.2045 14.7793 65.0224 14.9297C64.8402 15.0801 64.6988 15.2739 64.6112 15.4933C64.6343 15.1568 64.5609 14.8207 64.3994 14.5245C64.238 14.2284 63.9954 13.9845 63.7001 13.8215C63.4048 13.6586 63.0691 13.5834 62.7325 13.6047C62.3959 13.6261 62.0724 13.7432 61.8 13.9421C61.6509 13.5979 61.4003 13.3075 61.0816 13.1096C60.763 12.9118 60.3915 12.8159 60.0168 12.835C59.6422 12.854 59.2824 12.9869 58.9854 13.2161C58.6884 13.4452 58.4684 13.7596 58.355 14.1171C58.047 13.9308 57.6893 13.8433 57.33 13.8665C56.9708 13.8896 56.6273 14.0223 56.3458 14.2466C56.0642 14.4709 55.8581 14.776 55.7553 15.121C55.6524 15.466 55.6577 15.8342 55.7705 16.176C55.4102 16.2168 55.0712 16.3677 54.7997 16.6081C54.5282 16.8485 54.3374 17.1668 54.2533 17.5195C54.1692 17.8723 54.1959 18.2424 54.3298 18.5794C54.4636 18.9164 54.6981 19.204 55.0013 19.4029C54.7174 19.6328 54.5118 19.9451 54.413 20.2968C54.3142 20.6484 54.3269 21.0221 54.4495 21.3662C54.5721 21.7103 54.7984 22.0079 55.0973 22.2179C55.3962 22.4279 55.753 22.5399 56.1183 22.5385C56.0445 22.8894 56.0798 23.2545 56.2194 23.5849C56.359 23.9152 56.5962 24.195 56.8992 24.3868C57.2022 24.5785 57.5566 24.6731 57.9149 24.6579C58.2732 24.6426 58.6183 24.5182 58.9039 24.3014C59.0171 24.5916 59.2074 24.8454 59.4543 25.0354C59.7012 25.2254 59.9953 25.3443 60.3049 25.3794C60.2479 25.5803 60.2363 25.7914 60.271 25.9974C60.3057 26.2034 60.3858 26.3991 60.5054 26.5703C60.6251 26.7415 60.7814 26.8839 60.9629 26.9873C61.1444 27.0906 61.3467 27.1523 61.555 27.1678C61.4425 27.4057 61.399 27.6704 61.4293 27.9319C61.4596 28.1933 61.5625 28.4411 61.7264 28.647C61.8903 28.8529 62.1086 29.0088 62.3566 29.097C62.6046 29.1852 62.8723 29.2022 63.1295 29.146C63.0986 29.4076 63.1417 29.6727 63.2538 29.9111C63.366 30.1494 63.5428 30.3516 63.7641 30.4945C63.9854 30.6375 64.2423 30.7155 64.5057 30.7198C64.7692 30.724 65.0285 30.6544 65.2543 30.5186C65.3023 30.7871 65.4271 31.036 65.6136 31.235C65.8 31.4341 66.0402 31.5749 66.3049 31.6404C66.5697 31.7059 66.8478 31.6932 67.1056 31.604C67.3633 31.5148 67.5897 31.3528 67.7573 31.1377C67.927 31.381 68.147 31.585 68.4024 31.7359C68.6578 31.8868 68.9426 31.9811 69.2376 32.0124C69.6885 31.198 69.9936 30.3111 70.1393 29.3918C70.289 28.4556 70.1141 27.4964 69.6435 26.6734C67.6384 26.014 68.54 23.659 69.8992 24.5741C70.5451 25.0182 70.7902 24.9898 70.8412 24.5606C70.845 24.4366 70.8823 24.316 70.9491 24.2115C71.016 24.107 71.1098 24.0225 71.2208 23.9671C71.3405 24.2194 71.532 24.4308 71.7715 24.5746C72.0109 24.7184 72.2875 24.7883 72.5665 24.7753C72.8455 24.7624 73.1144 24.6672 73.3395 24.5019C73.5646 24.3365 73.7358 24.1083 73.8315 23.846C73.9618 23.9835 74.1183 24.0936 74.2919 24.1696C74.4654 24.2457 74.6524 24.2861 74.8419 24.2886C75.0313 24.2911 75.2193 24.2556 75.3948 24.1842C75.5703 24.1128 75.7297 24.0069 75.8636 23.8729C76.1966 24.6572 76.4491 25.4733 76.6172 26.3086C76.9225 26.137 77.1533 25.8584 77.265 25.5265C77.3767 25.1945 77.3614 24.833 77.222 24.5117C77.1299 24.2988 76.9869 24.1118 76.8056 23.9671C77.0082 23.8643 77.1841 23.7158 77.3193 23.5332C77.4546 23.3506 77.5454 23.1391 77.5847 22.9153Z" stroke="#0B1D51" stroke-width="0.711835" stroke-linejoin="round"/>
<path d="M76.3601 31.2451L116.53 24.4896" stroke="#0B1D51" stroke-width="0.711835" stroke-linecap="round" stroke-linejoin="round"/>
<path d="M10.4465 42.3069L68.9855 32.4832" stroke="#0B1D51" stroke-width="0.711835" stroke-linecap="round" stroke-linejoin="round"/>
<path d="M72.269 37.57L84.3133 48.3896" stroke="#0B1D51" stroke-width="0.711835" stroke-linecap="round" stroke-linejoin="round"/>
<path d="M84.3671 49.5739C84.5286 48.9684 84.5293 48.5363 84.3133 48.3897C84.1122 48.2537 83.7467 48.3741 83.2906 48.6992C82.6069 49.239 81.9888 49.857 81.449 50.5407" stroke="#0B1D51" stroke-width="0.711835" stroke-linecap="round" stroke-linejoin="round"/>
<path d="M34.0364 65.5207C29.4878 61.9007 29.111 61.7931 25.5045 57.8501C17.8877 58.9267 9.50455 61.4701 5.95184 63.1522C11.3746 65.2012 17.1827 66.0283 22.9618 65.5746L29.1387 71.1324" stroke="#0B1D51" stroke-width="0.711835" stroke-linecap="round" stroke-linejoin="round"/>
<path d="M68.2454 37.5969L80.9356 48.9817" stroke="#0B1D51" stroke-width="0.711835" stroke-linecap="round" stroke-linejoin="round"/>
<path d="M74.7721 58.1463L66.5632 51.1889L71.5346 58.9247" stroke="#0B1D51" stroke-width="0.711835" stroke-linecap="round" stroke-linejoin="round"/>
<path d="M104.069 59.6639C104.564 59.7716 109.104 61.3581 110.057 63.0552C110.694 64.1849 107.473 61.9382 105.387 61.8709" stroke="#0B1D51" stroke-width="0.711835" stroke-linecap="round" stroke-linejoin="round"/>
<path d="M103.624 61.1473C104.889 61.6048 107.888 62.8712 108.671 64.2963C109.379 65.5896 106.829 63.2197 103.772 63.1255" stroke="#0B1D51" stroke-width="0.711835" stroke-linecap="round" stroke-linejoin="round"/>
<path d="M103.275 62.8428C106.477 64.7133 108.242 66.4451 103.894 64.5653C101.647 63.5943 85.266 63.0985 85.266 63.0985C83.8284 62.9498 82.4555 62.4248 81.2855 61.5764L74.7991 56.651" stroke="#0B1D51" stroke-width="0.711835" stroke-linecap="round" stroke-linejoin="round"/>
<path d="M79.9128 49.2914L86.5068 55.1453C86.5068 55.1453 103.032 58.2405 104.297 58.6017C105.562 58.9629 108.592 59.7307 109.478 60.7414C109.95 61.2797 107.354 60.3518 105.778 60.2704" stroke="#0B1D51" stroke-width="0.711835" stroke-linecap="round" stroke-linejoin="round"/>
<path d="M80.9894 50.166C81.1508 49.5604 81.1515 49.1284 80.9355 48.9817C80.7344 48.8458 80.3689 48.9669 79.9128 49.2913C78.0507 50.6164 75.2835 54.7244 74.7048 56.9753C74.5632 57.5278 74.5887 58.0257 74.7721 58.1461C74.9846 58.2878 75.593 58.1192 76.047 57.6078" stroke="#0B1D51" stroke-width="0.711835" stroke-linecap="round" stroke-linejoin="round"/>
<path d="M54.2095 62.5332C57.4583 62.6699 60.6548 61.6762 63.2527 59.7207" stroke="#0B1D51" stroke-width="0.711835" stroke-linecap="round" stroke-linejoin="round"/>
<path d="M71.4213 59.1285L72.8612 56.5313" stroke="#0B1D51" stroke-width="0.711835" stroke-linecap="round" stroke-linejoin="round"/>
<path d="M72.0538 36.291C71.1656 37.5829 69.5373 37.0177 67.2899 34.851" stroke="#0B1D51" stroke-width="0.711835" stroke-linecap="round" stroke-linejoin="round"/>
<path d="M57.6389 78.8987L68.0973 67.2567L56.5779 86.0161" stroke="#0B1D51" stroke-width="0.711835" stroke-linecap="round" stroke-linejoin="round"/>
<path d="M41.1829 85.5721C41.9424 86.2544 42.829 86.7804 43.7919 87.1199C44.7548 87.4594 45.7752 87.6059 46.7947 87.5509C47.8142 87.4959 48.8129 87.2406 49.7337 86.7994C50.6545 86.3583 51.4794 85.74 52.1611 84.98L57.6361 78.8987L55.4716 93.3475L46.536 103.306C48.7782 107.243 52.2339 110.348 56.3867 112.159L65.8472 101.622C67.2477 100.065 68.2376 98.1821 68.727 96.1452C70.7867 87.5043 70.0862 72.2452 71.4185 59.1244C66.0625 58.1285 64.0843 56.9174 60.0067 53.7011C57.3719 55.6269 51.4911 57.0562 45.5813 71.7515L36.7689 63.8252C32.7033 65.8938 29.5521 69.4 27.9275 73.6624L41.1829 85.5721Z" stroke="#0B1D51" stroke-width="0.711835" stroke-linecap="round" stroke-linejoin="round"/>
<path d="M72.7082 32.1255C72.3519 31.9927 72.0042 31.838 71.667 31.6623L72.3505 33.1497" stroke="#0B1D51" stroke-width="0.711835" stroke-linecap="round" stroke-linejoin="round"/>
<path d="M73.265 42.1052C72.2734 39.2438 71.4504 34.8688 72.7047 32.1256C77.8 33.9948 77.3687 27.3887 75.8757 23.8976M60.006 53.6919C60.5787 51.8924 60.9665 50.0392 61.1634 48.161C61.5062 45.2713 62.3448 42.4625 63.6423 39.8579C64.9101 37.194 67.8212 34.7377 69.3085 31.9046C69.7542 31.1263 70.0373 30.2656 70.1408 29.3747C70.2908 28.4385 70.1159 27.4792 69.645 26.6563C67.6398 25.9969 68.5457 23.6362 69.9006 24.557C70.5487 24.9982 70.8023 24.9742 70.8427 24.5435C70.8795 24.3169 70.9248 24.1016 70.9779 23.8976" stroke="#0B1D51" stroke-width="0.711835" stroke-linecap="round" stroke-linejoin="round"/>
<path d="M49.5129 99.9982C51.947 103.79 55.4111 106.81 59.4996 108.705" stroke="#0B1D51" stroke-width="0.711835" stroke-linecap="round" stroke-linejoin="round"/>
<path d="M30.8611 76.2597C33.122 72.1517 35.948 68.7775 39.6622 66.4359" stroke="#0B1D51" stroke-width="0.711835" stroke-linecap="round" stroke-linejoin="round"/>
<path d="M48.1403 105.745C45.2973 109.215 42.7539 111.939 39.9852 114.828C39.2451 119.202 39.595 129.241 41.008 133.911C44.7618 127.666 46.1217 123.697 48.0199 117.266L53.7796 110.86" stroke="#0B1D51" stroke-width="0.711835" stroke-linecap="round" stroke-linejoin="round"/>
<path d="M23.2579 65.8438C24.5282 63.804 26.0875 61.9591 27.8872 60.3667" stroke="#0B1D51" stroke-width="0.711835" stroke-linecap="round" stroke-linejoin="round"/>
<path d="M108.671 60.1514C110.138 60.2994 113.122 61.2138 112.574 60.582C112.175 60.2103 111.715 59.9099 111.214 59.6938C109.316 58.766 107.5 58.4692 105.482 57.9175L89.8287 54.1225L83.2969 48.6929" stroke="#0B1D51" stroke-width="0.711835" stroke-linecap="round" stroke-linejoin="round"/>
<path d="M58.61 62.0083L46.5388 79.745L34.8714 70.4998" stroke="#0B1D51" stroke-width="0.711835" stroke-linecap="round" stroke-linejoin="round"/>
<path d="M91.6071 21.6232C91.6979 22.1689 91.6247 22.7292 91.3967 23.2332C91.1688 23.7372 90.7963 24.1621 90.3265 24.4542C89.9757 24.6732 89.5806 24.8115 89.1698 24.8592C88.7589 24.907 88.3426 24.8629 87.9509 24.7302C87.5592 24.5976 87.2018 24.3796 86.9046 24.092C86.6073 23.8045 86.3776 23.4545 86.232 23.0674C86.0864 22.6805 86.0283 22.2662 86.0619 21.8542C86.0955 21.4422 86.22 21.0428 86.4264 20.6846C86.6329 20.3265 86.9161 20.0186 87.2557 19.783C87.5954 19.5474 87.9831 19.3899 88.3908 19.3221C89.1224 19.2011 89.8722 19.3755 90.4752 19.807C91.0783 20.2385 91.4854 20.8917 91.6071 21.6232Z" stroke="#0B1D51" stroke-width="0.711835" stroke-linecap="round" stroke-linejoin="round"/>
<path d="M99.224 20.3582C99.3148 20.9039 99.2416 21.4642 99.0136 21.9682C98.7856 22.4722 98.4132 22.8971 97.9434 23.1892C97.5926 23.4082 97.1974 23.5465 96.7866 23.5942C96.3758 23.642 95.9595 23.5979 95.5678 23.4652C95.1761 23.3325 94.8187 23.1146 94.5214 22.827C94.2242 22.5395 93.9945 22.1895 93.8489 21.8024C93.7032 21.4155 93.6451 21.0012 93.6788 20.5892C93.7124 20.1772 93.8369 19.7778 94.0433 19.4196C94.2497 19.0615 94.533 18.7535 94.8726 18.5179C95.2123 18.2823 95.5999 18.1249 96.0077 18.057C96.7393 17.936 97.489 18.1105 98.0921 18.5419C98.6952 18.9734 99.1023 19.6267 99.224 20.3582Z" stroke="#0B1D51" stroke-width="0.711835" stroke-linecap="round" stroke-linejoin="round"/>
<path d="M106.975 19.0665C107.066 19.6121 106.993 20.1724 106.765 20.6764C106.537 21.1804 106.164 21.6054 105.695 21.8974C105.225 22.1904 104.68 22.3375 104.127 22.32C103.574 22.3026 103.038 22.1214 102.588 21.7994C102.138 21.4774 101.794 21.0291 101.599 20.5114C101.404 19.9936 101.367 19.4296 101.493 18.8908C101.597 18.4427 101.81 18.0271 102.112 17.6809C102.415 17.3347 102.799 17.0687 103.229 16.9063C103.66 16.744 104.123 16.6904 104.579 16.7503C105.035 16.8102 105.47 16.9817 105.843 17.2497C106.142 17.4633 106.396 17.7337 106.59 18.0455C106.784 18.3572 106.915 18.7041 106.975 19.0665Z" stroke="#0B1D51" stroke-width="0.711835" stroke-linecap="round" stroke-linejoin="round"/>
<path d="M26.8778 9.21567L21.7372 16.4557" stroke="#0B1D51" stroke-width="0.711835" stroke-linecap="round" stroke-linejoin="round"/>
<path d="M27.9275 15.4061L20.7009 10.2654" stroke="#0B1D51" stroke-width="0.711835" stroke-linecap="round" stroke-linejoin="round"/>
<path d="M6.46319 87.2544L6.3017 87.3082L11.2674 91.7087L4.71375 98.9083L8.22608 102.044L14.7798 94.8308L19.7313 99.232L23.4328 81.8049L6.46319 87.2544Z" stroke="#0B1D51" stroke-width="0.711835" stroke-linecap="round" stroke-linejoin="round"/>
<path d="M93.1278 97.1856L82.7119 93.9559L91.4726 87.8732" stroke="#0B1D51" stroke-width="0.711835" stroke-linecap="round" stroke-linejoin="round"/>
<path d="M101.687 95.813L110.38 89.3804L100.031 86.4871" stroke="#0B1D51" stroke-width="0.711835" stroke-linecap="round" stroke-linejoin="round"/>
<path d="M98.4299 82.6517L94.6215 101.196" stroke="#0B1D51" stroke-width="0.711835" stroke-linecap="round" stroke-linejoin="round"/>
<path d="M14.177 65.2714L21.1585 108.315C21.4075 109.783 21.9437 111.187 22.7362 112.448C23.5287 113.709 24.5621 114.801 25.7771 115.662C26.9921 116.522 28.3647 117.135 29.8166 117.466C31.2684 117.796 32.7712 117.837 34.2389 117.587L39.8357 116.645" stroke="#0B1D51" stroke-width="0.711835" stroke-linecap="round" stroke-linejoin="round"/>
<path d="M123.057 64.8019L127.215 90.4301C127.465 91.8979 127.424 93.4006 127.094 94.8525C126.764 96.3044 126.151 97.6769 125.29 98.8919C124.429 100.107 123.336 101.14 122.076 101.932C120.815 102.725 119.411 103.261 117.943 103.511L50.168 114.908" stroke="#0B1D51" stroke-width="0.711835" stroke-linecap="round" stroke-linejoin="round"/>
<path d="M54.4665 20.1969L19.2206 26.1181C17.7527 26.3677 16.3484 26.9042 15.0879 27.6967C13.8274 28.4893 12.7354 29.5225 11.8744 30.7372C11.0133 31.9519 10.4 33.3244 10.0696 34.7763C9.73917 36.2281 9.69805 37.7308 9.94858 39.1985L13.4007 60.4851" stroke="#0B1D51" stroke-width="0.711835" stroke-linecap="round" stroke-linejoin="round"/>
<path d="M74.2742 16.8686L102.925 12.0551C104.392 11.8044 105.895 11.8454 107.347 12.1757C108.799 12.5061 110.172 13.1193 111.386 13.9804C112.601 14.8415 113.634 15.9336 114.427 17.1942C115.219 18.4548 115.756 19.8592 116.005 21.3272L121.318 54.0792" stroke="#0B1D51" stroke-width="0.711835" stroke-linecap="round" stroke-linejoin="round"/>
<path d="M42.6901 111.975C44.1724 114.011 45.9716 115.797 48.0191 117.264" stroke="#0B1D51" stroke-width="0.711835" stroke-linecap="round" stroke-linejoin="round"/>
</svg>
