<svg width="155" height="155" viewBox="0 0 155 155" fill="none" xmlns="http://www.w3.org/2000/svg">
<path d="M90.5153 73.2976C81.0506 70.2447 78.7814 60.6911 78.7814 60.6911C79.0992 60.2372 79.4095 59.7779 79.712 59.3136L80.0181 54.3849C75.0741 53.018 77.8806 46.9979 77.8806 46.9979C75.6135 43.6844 73.7212 40.1293 72.2386 36.3982C69.4936 36.6656 66.8641 37.637 64.6045 39.2184C66.4941 45.527 69.6855 53.3157 76.467 63.6927C73.5489 67.3357 68.7855 73.0955 66.491 76.091L48.1998 67.902L44.0303 76.5257L64.5609 87.0382C65.9789 87.7016 67.584 87.8496 69.0994 87.4568C70.6149 87.0639 71.9459 86.1548 72.8631 84.8861L77.3563 78.6916C79.1595 81.4544 80.5409 83.7228 85.5453 85.8168C90.8689 83.4213 93.1741 80.5199 95.1708 76.5257C93.443 75.7287 91.8676 74.6363 90.5153 73.2976Z" fill="#006D77"/>
<path d="M90.7626 110.565L90.021 106.508L107.353 103.309L108.094 107.366L90.7626 110.565Z" fill="#006D77"/>
<path d="M105.928 107.147L103.209 104.065L117.851 91.1536L120.57 94.2356L105.928 107.147Z" fill="#006D77"/>
<path d="M39.3625 45.4821C38.7475 45.4646 38.1507 45.6922 37.7035 46.1147C37.2563 46.5373 36.9952 47.1202 36.9777 47.7352C36.9603 48.3502 37.1879 48.947 37.6104 49.3942C38.0329 49.8414 38.6158 50.1025 39.2309 50.1199C39.8459 50.1374 40.4426 49.9098 40.8899 49.4873C41.3371 49.0647 41.5982 48.4818 41.6156 47.8668C41.6331 47.2518 41.4055 46.655 40.9829 46.2078C40.5604 45.7606 39.9775 45.4995 39.3625 45.4821Z" fill="#006D77"/>
<path d="M41.2528 34.8096C41.8734 33.8672 42.253 32.7868 42.3582 31.6634C42.4633 30.54 42.2909 29.4079 41.8561 28.3667C41.4212 27.3256 40.7373 26.4072 39.8643 25.6923C38.9913 24.9774 37.9561 24.4879 36.8496 24.2668C35.7432 24.0458 34.5993 24.0999 33.5187 24.4245C32.4381 24.7491 31.4537 25.3343 30.6522 26.1284C29.8507 26.9226 29.2565 27.9015 28.922 28.9791C28.5875 30.0567 28.5228 31.2 28.7336 32.3085C28.7513 32.4263 28.775 32.5427 28.8064 32.6575L32.1501 32.033C32.0118 31.5771 31.968 31.0979 32.0214 30.6245C32.0749 30.1512 32.2244 29.6938 32.4608 29.2802C32.6972 28.8667 33.0156 28.5058 33.3964 28.2197C33.7773 27.9335 34.2125 27.7282 34.6755 27.6161C35.1385 27.5041 35.6194 27.4878 36.089 27.5682C36.5585 27.6486 37.0066 27.824 37.4059 28.0837C37.8053 28.3434 38.1474 28.6818 38.4113 29.0784C38.6752 29.4749 38.8554 29.9212 38.9408 30.3898C39.2469 32.059 38.34 33.3401 37.2104 34.7522C36.4688 35.6364 36.0623 36.7536 36.0624 37.9076C36.067 39.6311 36.2721 41.3493 36.6747 43.0253L40.1186 42.371C39.7491 40.8292 39.5877 39.245 39.6388 37.6604C39.8569 36.5545 40.6566 35.7111 41.2528 34.8096Z" fill="#006D77"/>
<path fill-rule="evenodd" clip-rule="evenodd" d="M32.4166 6.46426C38.0004 5.78153 43.6648 6.63158 48.8022 8.92325C58.6872 13.3269 64.7592 21.9154 66.5708 31.2975C66.5708 31.2975 66.6152 32.5618 66.7108 33.5361C66.107 33.9004 64.9184 32.8879 63.8799 32.0024C62.9431 31.2042 62.1281 30.51 61.975 31.0251C61.828 31.5202 62.1816 32.0506 62.7434 32.8925C63.4972 34.0221 64.6245 35.7119 65.419 38.6301L64.6536 39.2523C64.8855 40.1799 65.4343 41.7396 66.0794 43.5764L66.3442 44.3318C65.06 49.885 62.2168 55.1734 57.7244 59.4982C53.8873 63.2097 49.1566 65.867 43.9906 67.2127C43.8758 67.2433 43.0937 66.7351 42.1638 66.1313C40.8926 65.3047 39.3451 64.2999 38.8476 64.2448C38.0586 64.1568 39.9244 66.5637 40.7303 67.6045C40.8038 67.6979 40.8681 67.7806 40.9201 67.8494C36.8545 68.4847 32.703 68.3039 28.708 67.3177C24.713 66.3314 20.9543 64.5593 17.6515 62.1049C14.3486 59.6505 11.5676 56.5629 9.47075 53.0222C7.3739 49.4816 6.00319 45.5588 5.43859 41.4827C4.874 37.4066 5.12683 33.2589 6.18232 29.2816C7.23782 25.3043 9.07485 21.577 11.5862 18.3173C14.0976 15.0575 17.233 12.3305 20.8096 10.2955C24.3861 8.26041 28.3321 6.95801 32.4174 6.46426H32.4166ZM33.2324 13.0973C37.6006 12.5631 42.0318 13.2279 46.0509 15.0206C61.887 22.0754 65.2108 42.8601 53.0306 54.5841C50.2671 57.2575 46.9074 59.2353 43.2287 60.354C39.5501 61.4728 35.6581 61.7006 31.8741 61.0184C28.0901 60.3363 24.5226 58.7639 21.4662 56.431C18.4098 54.0981 15.9521 51.0716 14.2961 47.6015C12.6401 44.1314 11.8332 40.3171 11.9422 36.4736C12.0511 32.6302 13.0727 28.8678 14.9226 25.497C16.7726 22.1263 19.3977 19.2439 22.5814 17.0879C25.765 14.9319 29.4159 13.564 33.2324 13.0973Z" fill="#0B1D51"/>
<path d="M120.613 99.8628L122.387 97.1727L119.654 95.0206L118.215 96.3148L120.613 99.8628Z" fill="#0B1D51"/>
<path d="M130.007 103.123L127.711 108.404C127.019 110.013 125.825 111.355 124.308 112.231L135.767 121.164L142.514 112.848L130.007 103.123Z" fill="#0B1D51"/>
<path d="M117.924 62.8725C119.833 63.1393 121.772 62.6549 123.331 61.5211C124.891 60.3874 125.949 58.6929 126.284 56.7943C123.931 56.0373 121.45 55.7593 118.988 55.9766C116.526 56.1938 114.132 56.902 111.948 58.0594C112.417 59.3259 113.221 60.4418 114.273 61.2891C115.325 62.1364 116.586 62.6835 117.924 62.8725Z" fill="#0B1D51"/>
<path d="M74.1137 59.9643L63.5285 51.7347C62.0068 54.9605 59.8045 57.8184 57.073 60.112L70.6958 70.8572L76.4832 63.6891L74.1137 59.9643Z" fill="#0B1D51"/>
<path d="M82.6048 71.5383L77.3723 78.7507C77.7406 79.4272 78.1689 80.0694 78.6519 80.6694L82.6048 71.5383Z" fill="#0B1D51"/>
<path d="M79.9302 55.8928L82.0088 54.4249C81.3498 54.4679 80.6884 54.4533 80.032 54.3813L79.9302 55.8928Z" fill="#0B1D51"/>
<path d="M93.7574 63.4687C93.9104 62.2963 93.6442 61.1075 93.0058 60.1124C92.3673 59.1173 91.3978 58.3798 90.2683 58.0303C90.4127 57.6151 90.4576 57.1718 90.3992 56.7361C89.4395 49.728 87.9853 45.4093 85.586 42.938C83.9574 41.236 80.6283 41.513 78.6507 43.9988C76.6868 46.4884 77.1805 49.7724 77.1675 50.0449C77.3666 47.5985 78.5085 45.3253 80.352 43.7049C80.8679 43.2813 81.4748 42.9827 82.1252 42.8324C82.0234 45.0435 83.7829 48.5471 85.9059 47.6746C87.3256 47.0953 87.4963 49.6645 84.699 49.6645C83.9429 55.7274 84.1755 62.675 86.9674 68.3346L87.4182 69.1918C88.7904 71.6911 90.7521 73.8175 93.1329 75.3863C94.714 75.4688 96.2632 74.92 97.4398 73.8606C98.6163 72.8011 99.324 71.3178 99.407 69.7367C99.4894 68.1557 98.9405 66.6067 97.8811 65.4303C96.8216 64.2539 95.3384 63.5464 93.7574 63.4633V63.4687Z" fill="#0B1D51"/>
<path d="M120.613 99.8629L122.387 97.1728L119.654 95.0207L118.215 96.3149L120.613 99.8629Z" stroke="#0B1D51" stroke-width="0.769171" stroke-linejoin="round"/>
<path d="M130.007 103.123L127.711 108.404C127.019 110.013 125.825 111.355 124.308 112.231L135.767 121.164L142.514 112.848L130.007 103.123Z" stroke="#0B1D51" stroke-width="0.769171"/>
<path d="M74.1137 59.9644L63.5285 51.7349C62.0068 54.9606 59.8045 57.8185 57.073 60.1121L70.6958 70.8573L76.4832 63.6892L74.1137 59.9644Z" stroke="#0B1D51" stroke-width="0.769171"/>
<path d="M77.6618 46.689C75.466 43.4787 73.6508 40.0241 72.2525 36.3947C69.5069 36.661 66.877 37.634 64.6191 39.2187C66.5095 45.5288 69.6932 53.3083 76.4817 63.69" stroke="#0B1D51" stroke-width="0.769171" stroke-linecap="round" stroke-linejoin="round"/>
<path d="M66.9456 34.8241C66.5379 32.7028 66.3817 30.5409 66.4803 28.3831C66.4369 27.2681 66.5139 26.1517 66.7099 25.0532C67.2456 22.0401 67.9796 22.334 68.2222 25.2422C68.8153 32.3659 70.5181 34.7223 71.1442 36.5545" stroke="#0B1D51" stroke-width="0.769171" stroke-linecap="round" stroke-linejoin="round"/>
<path d="M66.5814 25.9693C66.0939 24.941 65.4623 23.9875 64.7056 23.1376C64.476 22.9171 63.9403 22.895 64.6038 24.7371C64.7462 25.1305 65.3148 26.831 65.4908 27.4417C65.899 28.6601 66.2292 29.9032 66.4796 31.1635" stroke="#0B1D51" stroke-width="0.769171" stroke-linecap="round" stroke-linejoin="round"/>
<path d="M66.6837 33.1229C66.5819 34.5625 64.3586 32.3362 63.3102 31.4943C62.3665 30.7367 61.0142 30.2553 62.9175 33.0066C64.0455 34.762 64.8987 36.6793 65.4477 38.6922" stroke="#0B1D51" stroke-width="0.769171" stroke-linecap="round" stroke-linejoin="round"/>
<path d="M121.646 101.375L118.215 96.3148" stroke="#0B1D51" stroke-width="0.769171" stroke-linecap="round" stroke-linejoin="round"/>
<path d="M80.051 54.3438C80.051 54.3438 79.8903 56.3581 79.7303 59.3099C79.4094 59.7651 79.0943 60.2243 78.7852 60.6875" stroke="#0B1D51" stroke-width="0.769171" stroke-linecap="round" stroke-linejoin="round"/>
<path d="M82.0095 54.4687L79.9363 55.8754" stroke="#0B1D51" stroke-width="0.769171" stroke-linecap="round" stroke-linejoin="round"/>
<path d="M103.936 103.411L92.3184 90.6012" stroke="#0B1D51" stroke-width="0.769171" stroke-linecap="round" stroke-linejoin="round"/>
<path d="M82.5905 71.5238L78.6506 80.6549" stroke="#0B1D51" stroke-width="0.769171" stroke-linecap="round" stroke-linejoin="round"/>
<path d="M112.544 95.8206C108.03 88.5657 101.475 82.8046 93.7 79.2597" stroke="#0B1D51" stroke-width="0.769171" stroke-linecap="round" stroke-linejoin="round"/>
<path d="M91.2302 106.285L85.5859 85.8026" stroke="#0B1D51" stroke-width="0.769171" stroke-linecap="round" stroke-linejoin="round"/>
<path d="M107.745 105.548L108.094 107.365L90.7626 110.564L90.021 106.507L103.209 104.08" stroke="#0B1D51" stroke-width="0.769171" stroke-linecap="round" stroke-linejoin="round"/>
<path d="M93.1183 75.4064C94.6759 75.4478 96.1882 74.8795 97.3332 73.8227C98.4781 72.7658 99.1654 71.3039 99.2487 69.7479C99.332 68.192 98.8047 66.665 97.7791 65.4919C96.7534 64.3189 95.3105 63.5925 93.7573 63.4673C93.9104 62.295 93.6442 61.1062 93.0057 60.1111C92.3673 59.116 91.3977 58.3785 90.2682 58.0289C90.7389 56.6644 89.2833 48.0889 86.662 44.2607C84.2023 40.6683 80.6068 41.5094 78.6361 43.9975C76.6653 46.4855 77.1659 49.7703 77.1529 50.0435" stroke="#0B1D51" stroke-width="0.769171" stroke-linecap="round" stroke-linejoin="round"/>
<path d="M120.613 99.863L130.516 84.7991C132.405 81.76 132.333 80.8002 133.176 78.7071C137.131 76.555 146.102 74.0248 150.537 73.4432C147.28 78.5326 139.647 81.5418 136.637 87.8527L127.695 108.383C127.166 109.599 126.351 110.669 125.319 111.502C124.287 112.334 123.069 112.903 121.768 113.162C120.468 113.42 119.124 113.36 117.852 112.986C116.58 112.612 115.417 111.936 114.463 111.015L108.298 105.069" stroke="#0B1D51" stroke-width="0.769171" stroke-linecap="round" stroke-linejoin="round"/>
<path d="M105.928 107.148L103.209 104.066L117.851 91.1537L120.57 94.2357L105.928 107.148Z" stroke="#0B1D51" stroke-width="0.769171" stroke-linecap="round" stroke-linejoin="round"/>
<path d="M40.7135 69.0517C42.2985 68.8918 39.6634 66.3784 39.2303 65.6078C38.6448 64.5631 38.0241 63.3531 40.7571 65.2733C42.9712 66.6708 45.2678 67.9331 47.6343 69.0533" stroke="#0B1D51" stroke-width="0.769171" stroke-linecap="round" stroke-linejoin="round"/>
<path d="M93.5544 110.041L94.7606 114.374C95.5475 117.159 97.3888 119.527 99.8936 120.975C102.395 122.429 125.237 133.393 125.237 133.393C131.33 136.837 133.816 144.647 138.673 148.253C138.396 143.789 136.477 134.658 134.601 130.574C132.6 129.602 131.626 129.598 128.844 127.608L107.018 112.268L105.768 107.79" stroke="#0B1D51" stroke-width="0.769171" stroke-linecap="round" stroke-linejoin="round"/>
<path d="M82.5904 71.5239C81.7623 72.6 76.7961 79.4718 72.8631 84.901C71.9447 86.1683 70.6136 87.0762 69.0986 87.4686C67.5835 87.8611 65.979 87.7136 64.5609 87.0516L44.0303 76.5406L48.1883 67.9185L66.4796 76.0898" stroke="#0B1D51" stroke-width="0.769171" stroke-linecap="round" stroke-linejoin="round"/>
<path d="M90.5156 73.2981C91.8772 74.6321 93.4523 75.7292 95.1756 76.5438C93.247 80.9827 89.9469 83.8565 85.557 85.8318C80.5388 83.731 79.165 81.484 77.3535 78.7089" stroke="#0B1D51" stroke-width="0.769171" stroke-linecap="round" stroke-linejoin="round"/>
<path d="M117.008 91.8807C108 79.807 98.455 77.896 95.1755 76.5436" stroke="#0B1D51" stroke-width="0.769171" stroke-linecap="round" stroke-linejoin="round"/>
<path d="M78.7814 60.6914C78.7814 60.6914 81.0499 70.2442 90.5154 73.2978C89.0559 71.8584 87.8513 70.1818 86.9528 68.3393C84.154 62.6873 83.9283 55.7328 84.6844 49.6699H85.0625C87.3584 49.539 87.3156 47.0946 85.8913 47.6801C83.7675 48.5502 82.0096 45.0481 82.1114 42.8386C81.4613 42.99 80.8544 43.2882 80.3374 43.7103C79.2621 44.6518 78.4188 45.829 77.8733 47.15C77.3278 48.471 77.0949 49.9002 77.1926 51.3261C77.4636 53.1743 78.7363 54.6514 82.0096 54.4708" stroke="#0B1D51" stroke-width="0.769171" stroke-linecap="round" stroke-linejoin="round"/>
<path d="M78.7814 60.6914C77.4145 62.7578 66.7566 75.3918 65.3315 77.7038" stroke="#0B1D51" stroke-width="0.769171" stroke-linecap="round" stroke-linejoin="round"/>
<path d="M35.291 70.7097C34.593 70.7969 33.1542 71.0885 32.7318 71.175C30.8131 71.5699 31.0603 72.0765 31.3657 72.1056C32.6009 72.2227 34.6076 72.2082 35.7563 72.3528C37.6031 72.5862 41.1657 72.9199 42.5616 73.7488" stroke="#0B1D51" stroke-width="0.769171" stroke-linecap="round" stroke-linejoin="round"/>
<path d="M35.6547 72.338C35.3485 72.4543 35.073 72.5561 34.9421 72.6143C33.11 73.3123 33.4452 73.7814 33.7498 73.7623C34.9865 73.6896 36.9641 73.3268 38.1267 73.2824C39.5248 73.2563 40.9222 73.3634 42.3 73.6023" stroke="#0B1D51" stroke-width="0.769171" stroke-linecap="round" stroke-linejoin="round"/>
<path d="M88.7704 30.5642C88.748 30.9384 88.6149 31.2974 88.388 31.5957C88.1611 31.8939 87.8507 32.1181 87.4961 32.2395C87.2313 32.3306 86.9496 32.3617 86.6712 32.3308C86.3929 32.2998 86.1249 32.2076 85.8865 32.0606C85.6481 31.9137 85.4453 31.7157 85.2926 31.4809C85.1399 31.2462 85.0412 30.9805 85.0035 30.703C84.9659 30.4255 84.9902 30.1431 85.0748 29.8761C85.1594 29.6091 85.3021 29.3642 85.4927 29.1591C85.6833 28.9539 85.917 28.7935 86.177 28.6895C86.437 28.5855 86.7169 28.5404 86.9964 28.5576C87.497 28.5905 87.9643 28.8198 88.2966 29.1956C88.6288 29.5715 88.7991 30.0634 88.7704 30.5642Z" stroke="#0B1D51" stroke-width="0.769171" stroke-linecap="round" stroke-linejoin="round"/>
<path d="M139.036 76.3079C139.459 72.2106 138.503 68.0893 136.319 64.5967C134.136 61.104 130.849 58.4394 126.981 57.0248C123.766 55.8498 120.288 55.5894 116.934 56.2724C113.58 56.9554 110.481 58.5552 107.982 60.8938C105.482 63.2325 103.68 66.2184 102.776 69.5197C101.872 72.821 101.901 76.3084 102.86 79.5942" stroke="#0B1D51" stroke-width="0.769171" stroke-linecap="round" stroke-linejoin="round"/>
<path d="M119.363 92.8679C121.444 93.0157 123.534 92.8037 125.543 92.2427" stroke="#0B1D51" stroke-width="0.769171" stroke-linecap="round" stroke-linejoin="round"/>
<path d="M119.988 48.1142C118.898 47.964 117.789 48.0571 116.74 48.3869C115.69 48.7166 114.727 49.2748 113.919 50.0214C113.111 50.7679 112.478 51.6842 112.067 52.7043C111.655 53.7244 111.475 54.8231 111.539 55.9213C111.625 57.39 112.145 58.8002 113.033 59.9738C113.92 61.1473 115.135 62.0316 116.525 62.5149C117.915 62.9982 119.416 63.0589 120.84 62.6893C122.265 62.3197 123.547 61.5363 124.526 60.4382C125.505 59.3396 126.137 57.9755 126.34 56.5182C126.61 54.5618 126.093 52.5782 124.902 51.0027C123.711 49.4271 121.944 48.3883 119.988 48.1142Z" stroke="#0B1D51" stroke-width="0.769171" stroke-linecap="round" stroke-linejoin="round"/>
<path d="M65.0125 25.9257C63.1582 21.1963 60.1703 16.9948 56.3115 13.6909C52.4527 10.387 47.8412 8.08178 42.8826 6.978C37.924 5.87423 32.7701 6.0057 27.8742 7.36085C22.9783 8.716 18.4903 11.2533 14.805 14.7497C11.1197 18.2461 8.34984 22.5944 6.7391 27.4122C5.12835 32.2301 4.72603 37.3699 5.56751 42.3797C6.40899 47.3895 8.4685 52.1158 11.5649 56.1431C14.6613 60.1703 18.6998 63.375 23.3252 65.4754C28.8367 67.9341 34.9374 68.7617 40.9048 67.8602" stroke="#0B1D51" stroke-width="0.769171" stroke-linecap="round" stroke-linejoin="round"/>
<path d="M66.321 44.2752C65.3789 48.3489 63.6198 52.1891 61.1504 55.5632C58.6809 58.9373 55.5525 61.7752 51.9543 63.905C49.468 65.3729 46.7855 66.4795 43.9873 67.1913" stroke="#0B1D51" stroke-width="0.769171" stroke-linecap="round" stroke-linejoin="round"/>
<path d="M46.0508 15.0207C42.0319 13.228 37.6008 12.5631 33.2327 13.0972C28.8646 13.6313 24.7243 15.3443 21.2557 18.0526C17.7872 20.7608 15.1212 24.3621 13.5437 28.4703C11.9662 32.5784 11.5368 37.0385 12.3013 41.3722C13.0658 45.7059 14.9956 49.7498 17.8836 53.0701C20.7716 56.3905 24.509 58.8621 28.6949 60.22C32.8808 61.5778 37.3573 61.7706 41.6445 60.7778C45.9316 59.785 49.8677 57.6439 53.0305 54.5842C65.2107 42.8602 61.8869 22.0755 46.0508 15.0207Z" stroke="#0B1D51" stroke-width="0.769171" stroke-linecap="round" stroke-linejoin="round"/>
<path d="M23.9788 88.0272L30.435 93.145L37.0214 83.0396" stroke="#0B1D51" stroke-width="0.769171" stroke-linecap="round" stroke-linejoin="round"/>
<path d="M80.512 92.5203L74.2302 93.3193" stroke="#0B1D51" stroke-width="0.769171" stroke-linecap="round" stroke-linejoin="round"/>
<path d="M77.7636 96.068L76.9639 89.7724" stroke="#0B1D51" stroke-width="0.769171" stroke-linecap="round" stroke-linejoin="round"/>
<path d="M41.6163 47.8669C41.6034 48.3257 41.4548 48.7704 41.1892 49.1447C40.9235 49.519 40.5529 49.8061 40.1241 49.9697C39.6953 50.1333 39.2276 50.1661 38.7801 50.0639C38.3327 49.9618 37.9256 49.7292 37.6103 49.3956C37.2951 49.0621 37.0858 48.6425 37.009 48.19C36.9322 47.7375 36.9914 47.2724 37.1789 46.8535C37.3664 46.4346 37.674 46.0807 38.0627 45.8366C38.4513 45.5926 38.9037 45.4692 39.3625 45.4822C39.977 45.5012 40.5591 45.7627 40.9814 46.2096C41.4037 46.6564 41.632 47.2523 41.6163 47.8669Z" stroke="#0B1D51" stroke-width="0.769171" stroke-linecap="round" stroke-linejoin="round"/>
<path d="M41.2384 34.8097C41.859 33.8673 42.2386 32.787 42.3438 31.6635C42.4489 30.5401 42.2765 29.408 41.8417 28.3669C41.4068 27.3257 40.7229 26.4073 39.8499 25.6924C38.9769 24.9775 37.9417 24.488 36.8352 24.267C35.7288 24.0459 34.5849 24.1001 33.5043 24.4247C32.4236 24.7493 31.4393 25.3344 30.6378 26.1286C29.8363 26.9227 29.2421 27.9017 28.9076 28.9793C28.5731 30.0569 28.5084 31.2001 28.7192 32.3086C28.7361 32.4265 28.7606 32.5428 28.7919 32.6576L32.1364 32.0331C31.9971 31.577 31.9525 31.0973 32.0053 30.6233C32.0582 30.1494 32.2073 29.6912 32.4436 29.277C32.68 28.8628 32.9985 28.5013 33.3796 28.2146C33.7607 27.928 34.1964 27.7222 34.6599 27.6101C35.1234 27.4979 35.6049 27.4817 36.0749 27.5624C36.5449 27.643 36.9935 27.8189 37.393 28.0793C37.7926 28.3396 38.1347 28.6789 38.3984 29.0762C38.6621 29.4736 38.8417 29.9206 38.9264 30.3899C39.2325 32.0591 38.3256 33.3403 37.196 34.7523C36.4544 35.6365 36.0479 36.7537 36.048 37.9077C36.0312 38.5276 36.0587 39.1483 36.1291 39.7652C36.2141 40.5764 36.6733 43.0255 36.6733 43.0255L40.1172 42.3711C40.0736 42.3711 39.6519 39.6381 39.6228 39.3328C39.5429 38.7782 39.5429 38.2151 39.6228 37.6605C39.8425 36.5546 40.6422 35.7112 41.2384 34.8097Z" stroke="#0B1D51" stroke-width="0.769171" stroke-linecap="round" stroke-linejoin="round"/>
<path d="M44.742 75.0573C42.706 73.7129 40.5498 72.56 38.3011 71.6134C36.4957 70.9534 34.6215 70.4998 32.7142 70.261C29.9077 69.9166 29.5871 69.1613 32.6415 68.7488C33.7654 68.6126 34.8981 68.564 36.0296 68.6034C38.1748 68.6309 40.3108 68.8942 42.3986 69.3886" stroke="#0B1D51" stroke-width="0.769171" stroke-linecap="round" stroke-linejoin="round"/>
</svg>
