<svg width="45" height="79" viewBox="0 0 45 79" fill="none" xmlns="http://www.w3.org/2000/svg">
<path d="M2.27991 4.79001C1.08991 4.79001 0.129883 3.82001 0.129883 2.64001C0.129883 1.45001 1.09991 0.48999 2.27991 0.48999C3.45991 0.48999 4.42987 1.46001 4.42987 2.64001C4.42987 3.83001 3.46991 4.79001 2.27991 4.79001Z" fill="#0B315E"/>
<path d="M2.27991 23.26C1.08991 23.26 0.129883 22.29 0.129883 21.11C0.129883 19.92 1.09991 18.96 2.27991 18.96C3.45991 18.96 4.42987 19.93 4.42987 21.11C4.42987 22.29 3.46991 23.26 2.27991 23.26Z" fill="#0B315E"/>
<path d="M22.5299 23.26C21.3399 23.26 20.3799 22.29 20.3799 21.11C20.3799 19.92 21.3499 18.96 22.5299 18.96C23.7199 18.96 24.6799 19.93 24.6799 21.11C24.6899 22.29 23.7199 23.26 22.5299 23.26Z" fill="#0B315E"/>
<path d="M2.27991 41.73C1.08991 41.73 0.129883 40.76 0.129883 39.58C0.129883 38.39 1.09991 37.43 2.27991 37.43C3.45991 37.43 4.42987 38.4 4.42987 39.58C4.42987 40.76 3.46991 41.73 2.27991 41.73Z" fill="#0B315E"/>
<path d="M22.5299 41.73C21.3399 41.73 20.3799 40.76 20.3799 39.58C20.3799 38.39 21.3499 37.43 22.5299 37.43C23.7199 37.43 24.6799 38.4 24.6799 39.58C24.6899 40.76 23.7199 41.73 22.5299 41.73Z" fill="#0B315E"/>
<path d="M42.7799 41.73C41.5899 41.73 40.6299 40.76 40.6299 39.58C40.6299 38.39 41.5999 37.43 42.7799 37.43C43.9699 37.43 44.9299 38.4 44.9299 39.58C44.9399 40.76 43.9699 41.73 42.7799 41.73Z" fill="#0B315E"/>
<path d="M2.27991 60.19C1.08991 60.19 0.129883 59.22 0.129883 58.04C0.129883 56.85 1.09991 55.89 2.27991 55.89C3.45991 55.89 4.42987 56.86 4.42987 58.04C4.42987 59.23 3.46991 60.19 2.27991 60.19Z" fill="#0B315E"/>
<path d="M22.5299 60.19C21.3399 60.19 20.3799 59.22 20.3799 58.04C20.3799 56.85 21.3499 55.89 22.5299 55.89C23.7199 55.89 24.6799 56.86 24.6799 58.04C24.6899 59.23 23.7199 60.19 22.5299 60.19Z" fill="#0B315E"/>
<path d="M2.27991 78.66C3.46732 78.66 4.42987 77.6974 4.42987 76.51C4.42987 75.3226 3.46732 74.36 2.27991 74.36C1.09249 74.36 0.129883 75.3226 0.129883 76.51C0.129883 77.6974 1.09249 78.66 2.27991 78.66Z" fill="#0B315E"/>
</svg>
